<?xml version="1.0" encoding="utf-8"?>
<!-- Generator: Adobe Illustrator 22.1.0, SVG Export Plug-In . SVG Version: 6.00 Build 0)  -->
<svg version="1.1" id="Слой_1" xmlns="http://www.w3.org/2000/svg" xmlns:xlink="http://www.w3.org/1999/xlink" x="0px" y="0px"
	 viewBox="0 0 2560 1440" style="enable-background:new 0 0 2560 1440;" xml:space="preserve">
<style type="text/css">
	.st0{fill:none;stroke:#000000;stroke-width:12;stroke-miterlimit:10;}
	.st1{fill:#FFFFFF;}
	.st2{fill:#FFFFFF;stroke:#000000;stroke-width:12;stroke-miterlimit:10;}
	.st3{fill:#FF7BAC;}
</style>
<circle cx="1111.5" cy="699.5" r="15.5"/>
<circle cx="1311.5" cy="764.5" r="15.5"/>
<path class="st0" d="M1153,715c0.4,2.6,1.5,6.9,5,10c6.1,5.3,15,3,19,2c5.6-1.4,9.6-4.1,12-6c0.1,2.1,0.5,7.1,4,12
	c3.8,5.3,8.9,7.2,11,8c9.4,3.4,17.8,0,20-1"/>
<path class="st0" d="M1558,902c-0.2-9.6-1.1-20-3-31c-8.5-49-33-84.8-51-106c0.9-10.5,3.3-26.2,10-44c5-13.2,8.7-18,12-27
	c4.6-12.7,7.7-32.2-1-61c-22.7,9.7-45.3,19.3-68,29c-50.6-28.9-108.9-56.5-175-79c-13.9-4.7-27.5-9-41-13c-5.5-9.2-12.4-19.4-21-30
	c-7.5-9.3-15-17.3-22-24c-7.2,6.7-14.5,14.1-22,22c-8,8.5-15.3,16.9-22,25c-20.5,5.8-42.9,14.1-66,26c-90.5,46.7-138.8,122-161,164"
	/>
<g>
	<path class="st1" d="M1446,778c-2.2-7.1-8.4-23.8-25-36c-5.4-4-24.5-18-45-12c-14.6,4.3-22.5,16.6-27,24c-22.7,36.8-8.2,82.9-4,95
		c32.8,7.8,65.7,15.7,98.5,23.5"/>
	<path d="M1446,778c-4.7-8.5-10.1-16.1-16.6-22.3c-3.2-3.1-6.6-5.9-10.3-8.4l-1.4-0.9l-1.5-0.9c-1-0.6-1.9-1.2-2.9-1.7
		c-1.9-1.1-3.8-2.2-5.8-3.1c-3.9-1.9-7.9-3.4-11.9-4.4c-4-0.9-8.1-1.2-11.9-0.8c-3.9,0.4-7.6,1.6-11,3.4c-3.4,1.8-6.5,4.3-9.2,7.3
		c-2.8,3-5.2,6.5-7.6,10.3l-0.9,1.5l-0.8,1.4c-0.5,0.9-1.1,1.9-1.5,2.8c-1,1.9-1.9,3.9-2.7,5.9c-1.6,4-3,8.1-3.9,12.4
		c-1,4.3-1.7,8.6-2.1,13c-1.5,17.7,1.2,36,6.3,53.6l0,0l-4.1-3.7l97.2,29.1l-99.8-17.9l-2.8-0.5l-1.3-3.2l0,0
		c-3.7-9.2-6.4-18.7-8.1-28.5c-0.8-4.9-1.5-9.9-1.8-14.9c-0.3-5-0.3-10.1,0-15.1c0.3-5.1,1-10.1,2.1-15.2c1.1-5,2.6-10,4.6-14.8
		c1-2.4,2.1-4.8,3.3-7.1c0.6-1.2,1.2-2.3,1.9-3.4l1-1.7l1-1.6c2.7-4.2,5.7-8.6,9.5-12.5c3.8-3.9,8.2-7.4,13.3-9.9
		c5.1-2.5,10.6-4.1,16.3-4.4c5.6-0.4,11.2,0.4,16.3,1.8c1.3,0.3,2.5,0.8,3.8,1.2c1.2,0.4,2.5,1,3.7,1.4c1.2,0.6,2.4,1.1,3.5,1.7
		c1.1,0.6,2.3,1.2,3.4,1.9c2.2,1.3,4.3,2.7,6.4,4.2c1,0.8,2,1.5,3,2.3l1.4,1.2l1.5,1.3c3.8,3.4,7.3,7.3,10.1,11.5
		c2.9,4.2,5.2,8.7,6.9,13.3C1444.4,768.4,1445.6,773.2,1446,778z"/>
</g>
<path class="st2" d="M-0.5,533.5c853.3,202,1706.7,404,2560,606"/>
<circle class="st3" cx="1379" cy="760" r="8.5"/>
<circle class="st3" cx="1405.5" cy="771.5" r="8.5"/>
<circle class="st3" cx="1364.5" cy="787.5" r="8.5"/>
<ellipse class="st3" cx="1391" cy="799" rx="14" ry="17"/>
<g>
	<path class="st1" d="M1003.5,651.5c-8.3,7.4-25.6,22.8-48,43c-31.7,28.6-42,38.1-48,55c-4,11.3-4.7,22.1-4.3,31
		c0.4,7.7,3.9,15,9.7,20.1c2.2,1.9,4.4,3.5,6.6,5c48.6,31.6,146-33.4,150.5-36.5"/>
	<path d="M1006.7,655c-11,10.4-22.1,20.6-33.2,30.8c-11.1,10.2-22.3,20.4-33.3,30.7c-5.4,5.1-10.8,10.3-15.4,15.7
		c-2.3,2.7-4.5,5.4-6.3,8.3c-1.8,2.9-3.3,5.9-4.5,9.1c-2.5,6.4-4,13.3-4.5,20.3c-0.3,3.5-0.3,7.1-0.1,10.5c0.2,3,1,5.9,2.3,8.6
		c1.3,2.7,3.1,5.1,5.4,7.1c2.5,2.2,5.4,4.2,8.2,5.9c5.8,3.3,12.4,5.2,19.3,6c3.5,0.4,7,0.5,10.5,0.5c3.6-0.1,7.1-0.3,10.7-0.8
		c7.2-0.9,14.3-2.4,21.4-4.4c7.1-1.9,14.1-4.3,21.1-6.9c6.9-2.6,13.8-5.5,20.6-8.7c6.8-3.1,13.5-6.4,20.1-9.9
		c3.3-1.7,6.6-3.5,9.9-5.4c3.3-1.8,6.6-3.7,9.7-5.6l3.1,4.5c-6.2,4.6-12.6,8.7-19.1,12.8c-6.5,4-13.1,7.8-19.9,11.3
		c-13.6,7.1-27.7,13.3-42.5,18c-7.4,2.3-15,4.2-22.8,5.3c-7.8,1.2-15.9,1.7-24,0.8c-8.1-0.8-16.4-3-23.8-7.1
		c-3.8-2.1-7.1-4.5-10.3-7.2c-3.5-3-6.3-6.7-8.4-10.8c-2-4.1-3.2-8.6-3.6-13.2c-0.3-4.1-0.2-8.1,0-12.2c0.6-8.1,2.3-16.2,5.3-23.8
		c1.5-3.8,3.4-7.6,5.6-11.2c2.2-3.5,4.8-6.7,7.4-9.8c5.3-6,10.9-11.3,16.5-16.5c5.6-5.2,11.3-10.2,16.9-15.2c5.7-5,11.3-10,17.1-15
		c11.4-9.9,22.8-19.9,34.3-29.7L1006.7,655z"/>
</g>
</svg>
