<?xml version="1.0" encoding="utf-8"?>
<!-- Generator: Adobe Illustrator 22.1.0, SVG Export Plug-In . SVG Version: 6.00 Build 0)  -->
<svg version="1.1" id="Слой_1" xmlns="http://www.w3.org/2000/svg" xmlns:xlink="http://www.w3.org/1999/xlink" x="0px" y="0px"
	 viewBox="0 0 2560 1440" style="enable-background:new 0 0 2560 1440;" xml:space="preserve">
<style type="text/css">
	.st0{fill:none;stroke:#000000;stroke-width:12;stroke-miterlimit:10;}
	.st1{fill:#FFFFFF;stroke:#000000;stroke-width:12;stroke-miterlimit:10;}
	.st2{fill:#FFFFFF;}
</style>
<circle cx="1111.5" cy="699.5" r="15.5"/>
<circle cx="1311.5" cy="764.5" r="15.5"/>
<path class="st0" d="M1153,715c0.4,2.6,1.5,6.9,5,10c6.1,5.3,15,3,19,2c5.6-1.4,9.6-4.1,12-6c0.1,2.1,0.5,7.1,4,12
	c3.8,5.3,8.9,7.2,11,8c9.4,3.4,17.8,0,20-1"/>
<path class="st0" d="M1558,902c-0.2-9.6-1.1-20-3-31c-8.5-49-33-84.8-51-106c0.9-10.5,3.3-26.2,10-44c5-13.2,8.7-18,12-27
	c4.6-12.7,7.7-32.2-1-61c-22.7,9.7-45.3,19.3-68,29c-50.6-28.9-108.9-56.5-175-79c-13.9-4.7-27.5-9-41-13c-5.5-9.2-12.4-19.4-21-30
	c-7.5-9.3-15-17.3-22-24c-7.2,6.7-14.5,14.1-22,22c-8,8.5-15.3,16.9-22,25c-20.5,5.8-42.9,14.1-66,26c-90.5,46.7-138.8,122-161,164"
	/>
<path class="st1" d="M-0.5,533.5c853.3,202,1706.7,404,2560,606"/>
<g>
	<path class="st2" d="M1003.5,651.5c-8.3,7.4-25.6,22.8-48,43c-31.7,28.6-42,38.1-48,55c-4,11.3-4.7,22.1-4.3,31
		c0.4,7.7,3.9,15,9.7,20.1c2.2,1.9,4.4,3.5,6.6,5c48.6,31.6,146-33.4,150.5-36.5"/>
	<path d="M1006.7,655c-11,10.4-22.1,20.6-33.2,30.8c-11.1,10.2-22.3,20.4-33.3,30.7c-5.4,5.1-10.8,10.3-15.4,15.7
		c-2.3,2.7-4.5,5.4-6.3,8.3c-1.8,2.9-3.3,5.9-4.5,9.1c-2.5,6.4-4,13.3-4.5,20.3c-0.3,3.5-0.3,7.1-0.1,10.5c0.2,3,1,5.9,2.3,8.6
		c1.3,2.7,3.1,5.1,5.4,7.1c2.5,2.2,5.4,4.2,8.2,5.9c5.8,3.3,12.4,5.2,19.3,6c3.5,0.4,7,0.5,10.5,0.5c3.6-0.1,7.1-0.3,10.7-0.8
		c7.2-0.9,14.3-2.4,21.4-4.4c7.1-1.9,14.1-4.3,21.1-6.9c6.9-2.6,13.8-5.5,20.6-8.7c6.8-3.1,13.5-6.4,20.1-9.9
		c3.3-1.7,6.6-3.5,9.9-5.4c3.3-1.8,6.6-3.7,9.7-5.6l3.1,4.5c-6.2,4.6-12.6,8.7-19.1,12.8c-6.5,4-13.1,7.8-19.9,11.3
		c-13.6,7.1-27.7,13.3-42.5,18c-7.4,2.3-15,4.2-22.8,5.3c-7.8,1.2-15.9,1.7-24,0.8c-8.1-0.8-16.4-3-23.8-7.1
		c-3.8-2.1-7.1-4.5-10.3-7.2c-3.5-3-6.3-6.7-8.4-10.8c-2-4.1-3.2-8.6-3.6-13.2c-0.3-4.1-0.2-8.1,0-12.2c0.6-8.1,2.3-16.2,5.3-23.8
		c1.5-3.8,3.4-7.6,5.6-11.2c2.2-3.5,4.8-6.7,7.4-9.8c5.3-6,10.9-11.3,16.5-16.5c5.6-5.2,11.3-10.2,16.9-15.2c5.7-5,11.3-10,17.1-15
		c11.4-9.9,22.8-19.9,34.3-29.7L1006.7,655z"/>
</g>
<g>
	<path class="st2" d="M1375.7,777c-5.9,9.5-18,29.1-33.8,54.9c-22.3,36.4-29.5,48.4-30.4,66.4c-0.6,12,1.7,22.5,4.7,30.9
		c2.6,7.3,8,13.3,15,16.5c2.6,1.2,5.2,2.2,7.7,2.9c55.6,16.5,130.5-73.5,133.9-77.7"/>
	<path d="M1378.9,779c-7.5,13.1-15.1,26.2-22.8,39.2c-7.7,13-15.5,26-23,39c-3.7,6.5-7.3,13-10.2,19.5c-1.4,3.3-2.7,6.5-3.6,9.8
		c-0.9,3.3-1.5,6.6-1.7,10c-0.6,6.9,0,13.9,1.5,20.8c0.7,3.4,1.7,6.9,2.9,10.1c1,2.8,2.6,5.4,4.7,7.6c2,2.2,4.5,4,7.2,5.2
		c3.1,1.4,6.4,2.5,9.5,3.3c6.4,1.5,13.3,1.4,20.2,0.2c3.4-0.6,6.8-1.5,10.2-2.6c3.4-1.1,6.7-2.3,10-3.8c6.6-2.9,13-6.4,19.3-10.3
		c6.3-3.9,12.3-8.1,18.2-12.6c5.9-4.5,11.7-9.2,17.3-14.1c5.6-4.9,11.1-10,16.5-15.2c2.7-2.6,5.3-5.3,8-7.9c2.6-2.7,5.2-5.4,7.7-8.1
		l4.3,3.4c-4.7,6.2-9.5,12-14.6,17.7c-5.1,5.7-10.4,11.2-15.9,16.6c-11,10.7-22.7,20.7-35.6,29.3c-6.5,4.3-13.2,8.2-20.4,11.6
		c-3.6,1.7-7.3,3.2-11.1,4.5c-3.8,1.3-7.7,2.3-11.7,3.1c-8,1.5-16.5,1.8-24.9,0c-4.2-0.9-8.1-2.3-11.9-4c-4.1-1.9-8-4.6-11-8
		c-3.1-3.4-5.5-7.3-7.1-11.6c-1.4-3.9-2.5-7.7-3.4-11.7c-1.7-7.9-2.3-16.1-1.6-24.3c0.4-4.1,1.1-8.2,2.2-12.2
		c1.1-4,2.7-7.8,4.3-11.4c3.4-7.2,7.3-13.9,11.2-20.4c3.9-6.6,8-13,12-19.3c4.1-6.4,8.1-12.8,12.2-19.1c8.2-12.7,16.4-25.4,24.8-38
		L1378.9,779z"/>
</g>
</svg>
