<?xml version="1.0" encoding="utf-8"?>
<!-- Generator: Adobe Illustrator 22.1.0, SVG Export Plug-In . SVG Version: 6.00 Build 0)  -->
<svg version="1.1" id="Слой_1" xmlns="http://www.w3.org/2000/svg" xmlns:xlink="http://www.w3.org/1999/xlink" x="0px" y="0px"
	 viewBox="0 0 2560 1440" style="enable-background:new 0 0 2560 1440;" xml:space="preserve">
<style type="text/css">
	.st0{fill:none;stroke:#000000;stroke-width:12;stroke-miterlimit:10;}
	.st1{fill:#FFFFFF;}
	.st2{fill:#FFFFFF;stroke:#000000;stroke-width:12;stroke-miterlimit:10;}
	.st3{fill:#FF7BAC;}
</style>
<circle cx="1111.5" cy="699.5" r="15.5"/>
<circle cx="1311.5" cy="764.5" r="15.5"/>
<path class="st0" d="M1153,715c0.4,2.6,1.5,6.9,5,10c6.1,5.3,15,3,19,2c5.6-1.4,9.6-4.1,12-6c0.1,2.1,0.5,7.1,4,12
	c3.8,5.3,8.9,7.2,11,8c9.4,3.4,17.8,0,20-1"/>
<path class="st0" d="M1558,902c-0.2-9.6-1.1-20-3-31c-8.5-49-33-84.8-51-106c0.9-10.5,3.3-26.2,10-44c5-13.2,8.7-18,12-27
	c4.6-12.7,7.7-32.2-1-61c-22.7,9.7-45.3,19.3-68,29c-50.6-28.9-108.9-56.5-175-79c-13.9-4.7-27.5-9-41-13c-5.5-9.2-12.4-19.4-21-30
	c-7.5-9.3-15-17.3-22-24c-7.2,6.7-14.5,14.1-22,22c-8,8.5-15.3,16.9-22,25c-20.5,5.8-42.9,14.1-66,26c-90.5,46.7-138.8,122-161,164"
	/>
<g>
	<path class="st1" d="M1017,679c-2.2-7.1-8.4-23.8-25-36c-5.4-4-24.5-18-45-12c-14.6,4.3-22.5,16.6-27,24c-22.7,36.8-8.2,82.9-4,95
		c32.8,7.8,65.7,15.7,98.5,23.5"/>
	<path d="M1017,679c-4.7-8.5-10.1-16.1-16.6-22.3c-3.2-3.1-6.6-5.9-10.3-8.4l-1.4-0.9l-1.5-0.9c-1-0.6-1.9-1.2-2.9-1.7
		c-1.9-1.1-3.8-2.2-5.8-3.1c-3.9-1.9-7.9-3.4-11.9-4.4c-4-0.9-8.1-1.2-11.9-0.8c-3.9,0.4-7.6,1.6-11,3.4c-3.4,1.8-6.5,4.3-9.2,7.3
		c-2.8,3-5.2,6.5-7.6,10.3l-0.9,1.5l-0.8,1.4c-0.5,0.9-1.1,1.9-1.5,2.8c-1,1.9-1.9,3.9-2.7,5.9c-1.6,4-3,8.1-3.9,12.4
		c-1,4.3-1.7,8.6-2.1,13c-1.5,17.7,1.2,36,6.3,53.6l0,0l-4.1-3.7l97.2,29.1l-99.8-17.9l-2.8-0.5l-1.3-3.2l0,0
		c-3.7-9.2-6.4-18.7-8.1-28.5c-0.8-4.9-1.5-9.9-1.8-14.9c-0.3-5-0.3-10.1,0-15.1c0.3-5.1,1-10.1,2.1-15.2c1.1-5,2.6-10,4.6-14.8
		c1-2.4,2.1-4.8,3.3-7.1c0.6-1.2,1.2-2.3,1.9-3.4l1-1.7l1-1.6c2.7-4.2,5.7-8.6,9.5-12.5c3.8-3.9,8.2-7.4,13.3-9.9
		c5.1-2.5,10.6-4.1,16.3-4.4c5.6-0.4,11.2,0.4,16.3,1.8c1.3,0.3,2.5,0.8,3.8,1.2c1.2,0.4,2.5,1,3.7,1.4c1.2,0.6,2.4,1.1,3.5,1.7
		c1.1,0.6,2.3,1.2,3.4,1.9c2.2,1.3,4.3,2.7,6.4,4.2c1,0.8,2,1.5,3,2.3l1.4,1.2l1.5,1.3c3.8,3.4,7.3,7.3,10.1,11.5
		c2.9,4.2,5.2,8.7,6.9,13.3C1015.4,669.4,1016.6,674.2,1017,679z"/>
</g>
<path class="st2" d="M-0.5,533.5c853.3,202,1706.7,404,2560,606"/>
<circle class="st3" cx="950" cy="659" r="8.5"/>
<circle class="st3" cx="976.5" cy="670.5" r="8.5"/>
<circle class="st3" cx="935.5" cy="686.5" r="8.5"/>
<ellipse class="st3" cx="962" cy="698" rx="14" ry="17"/>
<g>
	<path class="st1" d="M1375.7,777c-5.9,9.5-18,29.1-33.8,54.9c-22.3,36.4-29.5,48.4-30.4,66.4c-0.6,12,1.7,22.5,4.7,30.9
		c2.6,7.3,8,13.3,15,16.5c2.6,1.2,5.2,2.2,7.7,2.9c55.6,16.5,130.5-73.5,133.9-77.7"/>
	<path d="M1378.9,779c-7.5,13.1-15.1,26.2-22.8,39.2c-7.7,13-15.5,26-23,39c-3.7,6.5-7.3,13-10.2,19.5c-1.4,3.3-2.7,6.5-3.6,9.8
		c-0.9,3.3-1.5,6.6-1.7,10c-0.6,6.9,0,13.9,1.5,20.8c0.7,3.4,1.7,6.9,2.9,10.1c1,2.8,2.6,5.4,4.7,7.6c2,2.2,4.5,4,7.2,5.2
		c3.1,1.4,6.4,2.5,9.5,3.3c6.4,1.5,13.3,1.4,20.2,0.2c3.4-0.6,6.8-1.5,10.2-2.6c3.4-1.1,6.7-2.3,10-3.8c6.6-2.9,13-6.4,19.3-10.3
		c6.3-3.9,12.3-8.1,18.2-12.6c5.9-4.5,11.7-9.2,17.3-14.1c5.6-4.9,11.1-10,16.5-15.2c2.7-2.6,5.3-5.3,8-7.9c2.6-2.7,5.2-5.4,7.7-8.1
		l4.3,3.4c-4.7,6.2-9.5,12-14.6,17.7c-5.1,5.7-10.4,11.2-15.9,16.6c-11,10.7-22.7,20.7-35.6,29.3c-6.5,4.3-13.2,8.2-20.4,11.6
		c-3.6,1.7-7.3,3.2-11.1,4.5c-3.8,1.3-7.7,2.3-11.7,3.1c-8,1.5-16.5,1.8-24.9,0c-4.2-0.9-8.1-2.3-11.9-4c-4.1-1.9-8-4.6-11-8
		c-3.1-3.4-5.5-7.3-7.1-11.6c-1.4-3.9-2.5-7.7-3.4-11.7c-1.7-7.9-2.3-16.1-1.6-24.3c0.4-4.1,1.1-8.2,2.2-12.2
		c1.1-4,2.7-7.8,4.3-11.4c3.4-7.2,7.3-13.9,11.2-20.4c3.9-6.6,8-13,12-19.3c4.1-6.4,8.1-12.8,12.2-19.1c8.2-12.7,16.4-25.4,24.8-38
		L1378.9,779z"/>
</g>
</svg>
